<svg xmlns="http://www.w3.org/2000/svg" xmlns:xlink="http://www.w3.org/1999/xlink" viewBox="0 0 305.01 448"><defs><style>.cls-1{fill:url(#linear-gradient);}.cls-2{fill:url(#linear-gradient-2);}.cls-3{fill:none;}.cls-4{fill:url(#linear-gradient-4);}.cls-5{fill:url(#linear-gradient-5);}.cls-6{fill:url(#linear-gradient-6);}.cls-7{fill:url(#linear-gradient-7);}.cls-8{fill:url(#linear-gradient-8);}.cls-9{fill:url(#linear-gradient-9);}.cls-10{fill:url(#linear-gradient-10);}.cls-11{fill:url(#linear-gradient-11);}.cls-12{fill:url(#linear-gradient-12);}.cls-13{fill:url(#linear-gradient-13);}</style><linearGradient id="linear-gradient" x1="157.66" y1="491.33" x2="89.09" y2="44.76" gradientUnits="userSpaceOnUse"><stop offset="0" stop-color="#ed1c24"/><stop offset="1" stop-color="#fbb03b"/></linearGradient><linearGradient id="linear-gradient-2" x1="152.16" y1="-59.38" x2="259.12" y2="229.31" gradientUnits="userSpaceOnUse"><stop offset="0" stop-color="#c79eff"/><stop offset="0.58" stop-color="#ff765a"/><stop offset="1" stop-color="#8c2eff"/></linearGradient><linearGradient id="linear-gradient-4" x1="167.74" y1="-65.16" x2="274.7" y2="223.54" xlink:href="#linear-gradient-2"/><linearGradient id="linear-gradient-5" x1="83.45" y1="-105.98" x2="96.3" y2="556.02" xlink:href="#linear-gradient"/><linearGradient id="linear-gradient-6" x1="208.52" y1="-8.21" x2="151.95" y2="187.22" gradientUnits="userSpaceOnUse"><stop offset="0" stop-color="#e7316e"/><stop offset="0.05" stop-color="#e93a6e"/><stop offset="0.13" stop-color="#ed546c"/><stop offset="0.23" stop-color="#f47d6a"/><stop offset="0.35" stop-color="#fdb668"/><stop offset="0.37" stop-color="#ffc267"/><stop offset="0.44" stop-color="#f9aa62"/><stop offset="0.59" stop-color="#ea6d55"/><stop offset="0.8" stop-color="#d20b40"/><stop offset="0.82" stop-color="#cf003e"/><stop offset="1" stop-color="#ff008b"/></linearGradient><linearGradient id="linear-gradient-7" x1="17.44" y1="207.96" x2="98.87" y2="384.53" gradientUnits="userSpaceOnUse"><stop offset="0" stop-color="#abaeff"/><stop offset="1" stop-color="#93278f"/></linearGradient><linearGradient id="linear-gradient-8" x1="-20.92" y1="225.66" x2="60.5" y2="402.23" xlink:href="#linear-gradient-7"/><linearGradient id="linear-gradient-9" x1="51.89" y1="248.53" x2="110.6" y2="461.96" gradientUnits="userSpaceOnUse"><stop offset="0" stop-color="#7b00d0"/><stop offset="1" stop-color="#300073"/></linearGradient><linearGradient id="linear-gradient-10" x1="15.62" y1="258.51" x2="74.33" y2="471.94" xlink:href="#linear-gradient-9"/><linearGradient id="linear-gradient-11" x1="56.07" y1="247.38" x2="114.79" y2="460.81" xlink:href="#linear-gradient-9"/><linearGradient id="linear-gradient-12" x1="-10.15" y1="220.68" x2="71.28" y2="397.26" xlink:href="#linear-gradient-7"/><linearGradient id="linear-gradient-13" x1="27.68" y1="255.19" x2="86.4" y2="468.62" xlink:href="#linear-gradient-9"/></defs><g id="Layer_2" data-name="Layer 2"><g id="Layer_2-2" data-name="Layer 2"><path class="cls-1" d="M105,443c1.14-3.25,2.66-7.93,4.07-13.67,0,0,8.53-34.83-.07-72.33-11.35-49.48-46-55-76-111-52.57-98.11-1-183.54,67-226-2.68,11-5.4,28.33-1,48,11.11,49.73,54.54,55.15,89,106,49.83,75.69,43,162.16-23,223A253,253,0,0,1,105,443Z"/><path class="cls-2" d="M266,69c-8.39-13.11-16.34-21.82-25-28.23A88.62,88.62,0,0,0,219,29c-24.17-8.82-35.8-1-56-7-8.72-2.6-20.6-8.26-33-22a77.75,77.75,0,0,0,18,26c10.15,9.53,19.81,13.1,19,16-.57,2-5.89,3.66-29,1a31.67,31.67,0,0,1-8,61,148,148,0,0,1,45,28c23.48,21.45,34.42,45,42,62a226,226,0,0,1,14.5,44.5c-4-28.82-.09-51,3.5-64.5,7.16-27,16.41-31.82,19-33,12.25-5.61,25.9.87,30,3l21-14ZM207,79a27.69,27.69,0,0,1-3-16,26.47,26.47,0,0,1,13-3c14.35.56,27.9,14.13,34,34C231.5,97.82,213.81,91.51,207,79Z"/><g id="Layer_3" data-name="Layer 3"><path class="cls-3" d="M251,94c-6.1-19.87-19.65-33.44-34-34a26.47,26.47,0,0,0-13,3,27.69,27.69,0,0,0,3,16C213.81,91.51,231.5,97.82,251,94Z"/><path class="cls-2" d="M221.51,145.5a59.24,59.24,0,0,1-1-16,57,57,0,0,1,1-7,27.3,27.3,0,0,0,9,20,47.5,47.5,0,0,1-2-33,27.6,27.6,0,0,0,3,15,25.28,25.28,0,0,0,10,10c11.35,6.85,23.88,3.84,27,3a26.25,26.25,0,0,0-3.6,1.27c8.55.06,16.21,3.73,19.1,5.23l21-14L266,69c-8.39-13.11-16.34-21.82-25-28.23A88.62,88.62,0,0,0,219,29c-24.17-8.82-35.8-1-56-7-8.72-2.6-20.6-8.26-33-22a77.75,77.75,0,0,0,18,26c10.15,9.53,19.81,13.1,19,16-.57,2-5.89,3.66-29,1a31.67,31.67,0,0,1-8,61,148,148,0,0,1,45,28c23.48,21.45,34.42,45,42,62a226,226,0,0,1,14.5,44.5,164.1,164.1,0,0,1,2.32-59.71c-1.7-3.38-3.52-7.18-5.32-11.29A97.7,97.7,0,0,1,221.51,145.5ZM207,79a27.69,27.69,0,0,1-3-16,26.47,26.47,0,0,1,13-3c14.35.56,27.9,14.13,34,34C231.5,97.82,213.81,91.51,207,79Z"/><path class="cls-4" d="M254,141a25.6,25.6,0,0,1,10.9-2.23,26.25,26.25,0,0,1,3.6-1.27c-3.12.84-15.65,3.85-27-3a25.28,25.28,0,0,1-10-10,27.6,27.6,0,0,1-3-15,47.5,47.5,0,0,0,2,33,27.3,27.3,0,0,1-9-20,57,57,0,0,0-1,7,59.24,59.24,0,0,0,1,16,97.7,97.7,0,0,0,7,22c1.8,4.11,3.62,7.91,5.32,11.29.39-1.69.78-3.3,1.18-4.79C242.17,147,251.42,142.18,254,141Z"/></g><path class="cls-5" d="M105.51,442.5c5.82-7.84,14.28-19.49,24-34,17.92-26.75,26.88-40.13,32-55a133.27,133.27,0,0,0,6-61c-4.27-28.73-17.71-48.25-26-60-23.25-33-37.93-29.51-67-65-17.11-20.89-31-37.86-32-62-1.34-32.78,22-57.29,30-65a160.2,160.2,0,0,0-26,27,179.44,179.44,0,0,0-13,20c-4.75,8.22-10.6,18.34-15,31-6.55,18.84-6.9,34.7-7,44-.12,10.29.44,54.4,28,95,19,28,37,45,37,45,6.13,5.79,14.31,12.81,21,25a140.45,140.45,0,0,1,10,24c.55,1.74,1.9,6.07,3,11,1.58,7.13,2.94,16.95,2,34A249.57,249.57,0,0,1,105.51,442.5Z"/><path class="cls-6" d="M137.51,42.5a56.55,56.55,0,0,1,35,26,41.37,41.37,0,0,0-12-24,51.38,51.38,0,0,1,17,19c10.09,19.67,3.38,39.21,2,43a11.11,11.11,0,0,0-21,1c-1.44,6.4,2.76,11.71,7,12,3.07.21,6.42-2.22,8-6,1.44,2.07,4.42,6.41,8,12,17.78,27.82,29.17,53.91,29,54a22.11,22.11,0,0,1-1.51-2.69c-1-1.8-2.53-4.62-5.13-8.84a172.4,172.4,0,0,0-14.36-20.47c-1.6-1.94-4.73-5.65-9-10a155.39,155.39,0,0,0-21-18,140.8,140.8,0,0,0-30-16,74.31,74.31,0,0,0,7-3c6.18-3,11.85-5.82,16-11,6.33-7.89,6.06-17.5,6-19C158,58.69,149.74,47.82,137.51,42.5Z"/><path class="cls-7" d="M89.75,363a85.17,85.17,0,0,0-8.41-14.78l.17.25A111.72,111.72,0,0,1,89.75,363Z"/><path class="cls-8" d="M96.51,422.5a130.39,130.39,0,0,1-6,25,129.32,129.32,0,0,1-41-33,130.77,130.77,0,0,1-28-64,39.16,39.16,0,0,0,9,17,37.83,37.83,0,0,0,7,6,151,151,0,0,1-20-45c-3.79-14.83-4.91-33.76-7-71-.45-8-.76-14.62-1-19.24-.17-.42-.36-.85-.53-1.26a206.68,206.68,0,0,0-9,62c.17,20.08.5,56.7,24,93,21.62,33.4,51.73,49.32,67,56a160.42,160.42,0,0,0,6.81-37.19C97.48,415.27,97,419.21,96.51,422.5Z"/><path class="cls-9" d="M75,340c2.26,2.76,4.35,5.44,6.3,8.21A85,85,0,0,0,75,340Z"/><path class="cls-10" d="M9.51,237.5c0,.24,0,.51,0,.76q1.34,3.17,2.8,6.49C11.39,242.41,10.44,240,9.51,237.5Z"/><path class="cls-11" d="M97.82,410.81c.86-11.25.52-25.78-5.31-41.31-.32-.85-1.22-3.2-2.76-6.47q.65,1.44,1.26,3C95.41,377,98.88,391.62,97.82,410.81Z"/><path class="cls-12" d="M17.51,328.5a151,151,0,0,0,20,45,37.83,37.83,0,0,1-7-6,39.16,39.16,0,0,1-9-17,130.77,130.77,0,0,0,28,64,129.32,129.32,0,0,0,41,33,130.39,130.39,0,0,0,6-25c.45-3.29,1-7.23,1.31-11.69C98.88,391.62,95.41,377,91,366q-.62-1.53-1.26-3a111.72,111.72,0,0,0-8.24-14.53l-.17-.25c-2-2.77-4-5.45-6.3-8.21-2.07-2.41-4.39-4.94-7.53-8.54,0,0-12.14-13.92-23-29a289.81,289.81,0,0,1-19-30,270.5,270.5,0,0,1-13.17-27.75q-1.47-3.33-2.8-6.49c.21,4.62.52,11.25,1,19.24C12.6,294.74,13.72,313.67,17.51,328.5Z"/><path class="cls-13" d="M17.51,328.5a151,151,0,0,0,20,45,37.83,37.83,0,0,1-7-6,39.16,39.16,0,0,1-9-17,130.77,130.77,0,0,0,28,64,129.32,129.32,0,0,0,41,33,130.39,130.39,0,0,0,6-25c.45-3.29,1-7.23,1.31-11.69C98.88,391.62,95.41,377,91,366q-.62-1.53-1.26-3a111.72,111.72,0,0,0-8.24-14.53l-.17-.25c-2-2.77-4-5.45-6.3-8.21-2.07-2.41-4.39-4.94-7.53-8.54,0,0-12.14-13.92-23-29a289.81,289.81,0,0,1-19-30,270.5,270.5,0,0,1-13.17-27.75q-1.47-3.33-2.8-6.49c.21,4.62.52,11.25,1,19.24C12.6,294.74,13.72,313.67,17.51,328.5Z"/></g></g></svg>