<svg xmlns="http://www.w3.org/2000/svg" viewBox="0 0 127.28 60.82"><defs><style>.cls-1{isolation:isolate;}.cls-2,.cls-3{fill:#ade4ea;}.cls-3{opacity:0.5;mix-blend-mode:multiply;}.cls-4{fill:none;stroke:#fff;stroke-linecap:round;stroke-linejoin:round;stroke-width:1.5px;opacity:0.6;mix-blend-mode:overlay;}</style></defs><g class="cls-1"><g id="Layer_2" data-name="Layer 2"><g id="OBJECTS"><path class="cls-2" d="M5.91,60.82h118.9a20.72,20.72,0,0,0-18.23-30.53,20.88,20.88,0,0,0-5.79.83A12.44,12.44,0,0,0,79,23.21,30.3,30.3,0,0,0,19.2,30.29a29.24,29.24,0,0,0,.15,3,15.55,15.55,0,0,0-3.63-.44,15.72,15.72,0,0,0-9.81,28Z"/><path class="cls-3" d="M16.7,60.82h92.14a15.19,15.19,0,0,0,1.83-7.26c0-8.45-5.19-14.5-13.64-14.5a15,15,0,0,0-4.27.61s3.15-8-3.6-10.49c-5.48-2-11.58,3.16-12.86,6.85-2.36-9.84-14.18-21.91-28.79-20.58C35.2,16.57,26.43,27.64,29.58,42c-8.74-1.75-17.25,3.36-17.25,9.78A11.6,11.6,0,0,0,16.7,60.82Z"/><path class="cls-4" d="M8.72,56.94s-5.5-8.58,0-15,16.16-4.56,16.16-4.56S21.06,17.34,36.68,9,71,10.24,77.79,29.06c0,0,5.79-8.47,13.41-5.47C98.44,26.45,97,35.27,97,35.27s13.11-2.43,20,5.7c6.5,7.68,2.81,17.74,2.81,17.74"/></g></g></g></svg>