<svg xmlns="http://www.w3.org/2000/svg" viewBox="0 0 124.04 86.3"><defs><style>.cls-1{isolation:isolate;}.cls-2,.cls-3{fill:#ebab44;}.cls-3{opacity:0.3;}.cls-3,.cls-7,.cls-9{mix-blend-mode:multiply;}.cls-4,.cls-7{fill:#f6dc44;}.cls-5,.cls-7,.cls-9{opacity:0.5;}.cls-10,.cls-5{mix-blend-mode:overlay;}.cls-6{fill:#fff;}.cls-8,.cls-9{fill:#ade4ea;}.cls-10{fill:none;stroke:#fff;stroke-linecap:round;stroke-linejoin:round;stroke-width:1.5px;opacity:0.6;}</style></defs><g class="cls-1"><g id="Layer_2" data-name="Layer 2"><g id="OBJECTS"><polygon class="cls-2" points="104.05 58.92 121.33 59.94 110.68 46.69 119.48 43.7 111.1 39.04 124.04 27.53 107.14 25.69 111.24 17.36 102.02 19.99 103.04 2.71 89.79 13.36 86.8 4.56 82.14 12.93 70.63 0 68.79 16.9 60.46 12.79 63.09 22.01 45.81 21 56.46 34.25 47.66 37.24 56.03 41.9 43.1 53.4 60 55.24 55.9 63.58 65.11 60.95 64.1 78.23 77.35 67.58 80.34 76.38 85 68 96.5 80.94 98.34 64.04 106.68 68.14 104.05 58.92"/><polygon class="cls-3" points="100.95 56.14 115.63 57 106.58 45.75 114.05 43.21 106.94 39.26 117.92 29.49 103.58 27.93 107.06 20.85 99.24 23.08 100.09 8.41 88.85 17.45 86.31 9.98 82.36 17.09 72.59 6.11 71.03 20.46 63.95 16.98 66.18 24.8 51.51 23.94 60.55 35.19 53.08 37.73 60.19 41.68 49.21 51.45 63.56 53.01 60.08 60.09 67.9 57.85 67.04 72.53 78.28 63.48 80.83 70.95 84.78 63.84 94.55 74.82 96.11 60.48 103.19 63.96 100.95 56.14"/><circle class="cls-4" cx="83.57" cy="40.47" r="21.45" transform="translate(1.46 83.82) rotate(-53.67)"/><g class="cls-5"><path class="cls-6" d="M75.18,23.25a16.92,16.92,0,0,1,8.44-2.13A19.59,19.59,0,0,1,99.12,29,16.92,16.92,0,0,1,102.4,37a.71.71,0,0,1-.63.79.72.72,0,0,1-.7-.35h0a28.9,28.9,0,0,0-4.65-6.19,23.65,23.65,0,0,0-6-4.36,23.27,23.27,0,0,0-7-2.26,28.64,28.64,0,0,0-7.75-.08h0a.71.71,0,0,1-.43-1.32Z"/></g><path class="cls-7" d="M105,39.16A19.17,19.17,0,1,1,69.13,26.64a19.12,19.12,0,0,1,3.09-4.37A21.45,21.45,0,1,0,105,39.16Z"/><path class="cls-8" d="M106.45,86.3A23.7,23.7,0,0,0,79.28,51.6a32.09,32.09,0,0,0-63,8.62,31.67,31.67,0,0,0,.42,5.18l-.42,0A16.27,16.27,0,0,0,.68,86.3Z"/><path class="cls-9" d="M98.85,86.3a15.06,15.06,0,0,0,2.06-7.6c0-8.32-4.77-17.88-18.64-17.58a20.94,20.94,0,0,0-9.9,3.13c-2.39-8.59-10-17.64-22-17.64-8.3,0-15.88,4.07-18.93,15.17-1.66,6,.45,13.11.41,13.1-11.38-2.31-17.55-1.07-21.34,4.37a9.3,9.3,0,0,0-1.25,7Z"/><path class="cls-10" d="M7.25,76.09s3.41-8.48,16-5.23c0,0-5.56-20.86,8.9-31.79S68.24,33.92,76,57.21c0,0,11.4-4.64,20.07,1.18s10.21,15.2,9.26,22.8"/></g></g></g></svg>