<svg xmlns="http://www.w3.org/2000/svg" viewBox="0 0 109.69 83.8"><defs><style>.cls-1{isolation:isolate;}.cls-2,.cls-3{fill:#d8e8ea;}.cls-3{opacity:0.5;mix-blend-mode:multiply;}.cls-4{fill:none;stroke:#fff;stroke-linecap:round;stroke-linejoin:round;stroke-width:1.5px;opacity:0.6;mix-blend-mode:overlay;}</style></defs><g class="cls-1"><g id="Layer_2" data-name="Layer 2"><g id="OBJECTS"><path class="cls-2" d="M106.45,58.17a23.7,23.7,0,0,0-27.17-34.7,32.09,32.09,0,0,0-63,8.62,31.58,31.58,0,0,0,.42,5.18l-.42,0A16.27,16.27,0,0,0,.68,58.17Z"/><path class="cls-3" d="M98.85,58.17a15.06,15.06,0,0,0,2.06-7.6c0-8.32-4.77-17.87-18.64-17.57a20.82,20.82,0,0,0-9.9,3.13c-2.39-8.6-10-17.64-22-17.64-8.3,0-15.88,4.07-18.93,15.16-1.66,6,.45,13.11.41,13.1-11.38-2.31-17.55-1.07-21.34,4.37a9.3,9.3,0,0,0-1.25,7.05Z"/><path class="cls-4" d="M7.25,48s3.41-8.47,16-5.23c0,0-5.56-20.86,8.9-31.78S68.24,5.8,76,29.09c0,0,11.4-4.65,20.07,1.17s10.21,15.2,9.26,22.81"/><path class="cls-2" d="M16.83,69.9a3.11,3.11,0,1,1-6.22,0c0-1.72,3.11-6.92,3.11-6.92S16.83,68.18,16.83,69.9Z"/><path class="cls-3" d="M16,68.08a2.3,2.3,0,1,1-4.59,0c0-1.26,2.3-5.1,2.3-5.1S16,66.82,16,68.08Z"/><path class="cls-2" d="M37.39,69.9a3.11,3.11,0,0,1-6.22,0c0-1.72,3.11-6.92,3.11-6.92S37.39,68.18,37.39,69.9Z"/><path class="cls-3" d="M36.58,68.08a2.3,2.3,0,1,1-4.59,0c0-1.26,2.29-5.1,2.29-5.1S36.58,66.82,36.58,68.08Z"/><path class="cls-2" d="M58,69.9a3.11,3.11,0,0,1-6.22,0c0-1.72,3.11-6.92,3.11-6.92S58,68.18,58,69.9Z"/><path class="cls-3" d="M57.14,68.08a2.3,2.3,0,1,1-4.59,0c0-1.26,2.3-5.1,2.3-5.1S57.14,66.82,57.14,68.08Z"/><path class="cls-2" d="M78.52,69.9a3.11,3.11,0,0,1-6.22,0c0-1.72,3.11-6.92,3.11-6.92S78.52,68.18,78.52,69.9Z"/><path class="cls-3" d="M77.71,68.08a2.3,2.3,0,1,1-4.59,0c0-1.26,2.29-5.1,2.29-5.1S77.71,66.82,77.71,68.08Z"/><path class="cls-2" d="M99.08,69.9a3.11,3.11,0,1,1-6.21,0C92.87,68.18,96,63,96,63S99.08,68.18,99.08,69.9Z"/><path class="cls-3" d="M98.27,68.08a2.3,2.3,0,1,1-4.59,0c0-1.26,2.3-5.1,2.3-5.1S98.27,66.82,98.27,68.08Z"/><path class="cls-2" d="M27.11,80.69a3.11,3.11,0,0,1-6.22,0C20.89,79,24,73.77,24,73.77S27.11,79,27.11,80.69Z"/><path class="cls-3" d="M26.29,78.88a2.29,2.29,0,1,1-4.58,0c0-1.27,2.29-5.11,2.29-5.11S26.29,77.61,26.29,78.88Z"/><path class="cls-2" d="M47.67,80.69a3.11,3.11,0,1,1-6.21,0c0-1.72,3.1-6.92,3.1-6.92S47.67,79,47.67,80.69Z"/><path class="cls-3" d="M46.86,78.88a2.3,2.3,0,0,1-4.59,0c0-1.27,2.29-5.11,2.29-5.11S46.86,77.61,46.86,78.88Z"/><path class="cls-2" d="M68.24,80.69a3.11,3.11,0,0,1-6.22,0c0-1.72,3.11-6.92,3.11-6.92S68.24,79,68.24,80.69Z"/><path class="cls-3" d="M67.42,78.88a2.3,2.3,0,0,1-4.59,0c0-1.27,2.3-5.11,2.3-5.11S67.42,77.61,67.42,78.88Z"/><path class="cls-2" d="M88.8,80.69a3.11,3.11,0,0,1-6.22,0c0-1.72,3.11-6.92,3.11-6.92S88.8,79,88.8,80.69Z"/><path class="cls-3" d="M88,78.88a2.3,2.3,0,0,1-4.59,0c0-1.27,2.29-5.11,2.29-5.11S88,77.61,88,78.88Z"/></g></g></g></svg>