<svg xmlns="http://www.w3.org/2000/svg" viewBox="0 0 105.74 105.74"><defs><style>.cls-1{isolation:isolate;}.cls-2,.cls-3{fill:#ebab44;}.cls-3{opacity:0.3;}.cls-3,.cls-7{mix-blend-mode:multiply;}.cls-4,.cls-7{fill:#f6dc44;}.cls-5,.cls-7{opacity:0.5;}.cls-5{mix-blend-mode:overlay;}.cls-6{fill:#fff;}</style></defs><g class="cls-1"><g id="Layer_2" data-name="Layer 2"><g id="OBJECTS"><polygon class="cls-2" points="86.04 61.61 105.74 52.87 86.4 44.29 94.42 35.96 82.51 35.59 90.25 15.48 70.51 23.09 70.3 11.53 61.61 19.7 52.87 0 44.29 19.33 35.96 11.31 35.59 23.23 15.48 15.48 23.09 35.22 11.53 35.44 19.7 44.13 0 52.87 19.33 61.45 11.31 69.78 23.23 70.15 15.48 90.25 35.22 82.65 35.44 94.21 44.13 86.04 52.87 105.74 61.45 86.4 69.78 94.42 70.15 82.51 90.25 90.25 82.65 70.51 94.21 70.3 86.04 61.61"/><polygon class="cls-3" points="81.03 60.29 97.75 52.87 81.34 45.59 88.15 38.52 78.03 38.2 84.61 21.13 67.85 27.59 67.67 17.77 60.29 24.71 52.87 7.99 45.59 24.4 38.52 17.59 38.2 27.7 21.13 21.13 27.59 37.89 17.77 38.07 24.71 45.45 7.99 52.87 24.4 60.15 17.59 67.22 27.7 67.54 21.13 84.6 37.89 78.15 38.07 87.96 45.45 81.03 52.87 97.75 60.15 81.34 67.22 88.15 67.54 78.03 84.6 84.61 78.15 67.85 87.96 67.67 81.03 60.29"/><circle class="cls-4" cx="52.87" cy="52.87" r="26.69" transform="translate(-7.79 96.58) rotate(-80.78)"/><g class="cls-5"><path class="cls-6" d="M33.77,38.6a21.2,21.2,0,0,1,8.13-7.16,24.34,24.34,0,0,1,21.61-.16,21,21,0,0,1,8.23,7,.89.89,0,0,1-.25,1.23.88.88,0,0,1-1,0h0a36.39,36.39,0,0,0-8.67-4.19A29.55,29.55,0,0,0,52.72,34a28.92,28.92,0,0,0-9.09,1.51A35.36,35.36,0,0,0,35,39.82h0a.89.89,0,0,1-1.24-1.22Z"/></g><path class="cls-7" d="M75.8,39.21a23.86,23.86,0,1,1-45.86,0,26.69,26.69,0,1,0,45.86,0Z"/></g></g></g></svg>