<svg xmlns="http://www.w3.org/2000/svg" viewBox="0 0 127.28 100.95"><defs><style>.cls-1{isolation:isolate;}.cls-2,.cls-4{fill:#f6dc44;}.cls-3{fill:none;stroke:#fff;stroke-linecap:round;stroke-linejoin:round;stroke-width:1.5px;mix-blend-mode:overlay;}.cls-3,.cls-4{opacity:0.6;}.cls-4,.cls-6{mix-blend-mode:multiply;}.cls-5,.cls-6{fill:#aec9cc;}.cls-6{opacity:0.5;}</style></defs><g class="cls-1"><g id="Layer_2" data-name="Layer 2"><g id="OBJECTS"><polygon class="cls-2" points="52.48 54.79 42.9 75.65 54.83 75.65 42.9 100.95 80.11 71.27 68.86 71.27 77.76 54.79 52.48 54.79"/><polyline class="cls-3" points="57.75 86.35 73.22 74.03 63.76 74.03 71.96 58.87"/><polygon class="cls-4" points="50.2 95.13 60.79 72.67 48.86 72.67 57.07 54.79 52.48 54.79 42.9 75.65 54.83 75.65 42.9 100.95 50.2 95.13"/><polygon class="cls-2" points="25.16 55.71 19.01 69.1 26.67 69.1 19.01 85.34 42.9 66.29 35.68 66.29 41.38 55.71 25.16 55.71"/><polyline class="cls-3" points="28.54 75.97 38.48 68.06 32.4 68.06 37.67 58.33"/><polygon class="cls-4" points="23.7 81.6 30.5 67.19 22.84 67.19 28.11 55.71 25.16 55.71 19.01 69.1 26.67 69.1 19.01 85.34 23.7 81.6"/><polygon class="cls-2" points="86.26 55.71 80.11 69.1 87.77 69.1 80.11 85.34 104 66.29 96.78 66.29 102.48 55.71 86.26 55.71"/><polyline class="cls-3" points="89.64 75.97 99.58 68.06 93.5 68.06 98.77 58.33"/><polygon class="cls-4" points="84.8 81.6 91.6 67.19 83.94 67.19 89.21 55.71 86.26 55.71 80.11 69.1 87.77 69.1 80.11 85.34 84.8 81.6"/><path class="cls-5" d="M5.91,60.82h118.9a20.72,20.72,0,0,0-18.23-30.53,20.88,20.88,0,0,0-5.79.83A12.44,12.44,0,0,0,79,23.21,30.3,30.3,0,0,0,19.2,30.29a29.24,29.24,0,0,0,.15,3,15.55,15.55,0,0,0-3.63-.44,15.72,15.72,0,0,0-9.81,28Z"/><path class="cls-6" d="M16.7,60.82h92.14a15.19,15.19,0,0,0,1.83-7.26c0-8.45-5.19-14.5-13.64-14.5a15.16,15.16,0,0,0-4.28.61s3.16-8-3.59-10.49c-5.48-2-11.58,3.16-12.86,6.85-2.36-9.84-14.18-21.91-28.79-20.58C35.2,16.57,26.43,27.64,29.58,42c-8.74-1.75-17.25,3.36-17.25,9.78A11.6,11.6,0,0,0,16.7,60.82Z"/><path class="cls-3" d="M8.72,56.94s-5.5-8.58,0-15,16.16-4.56,16.16-4.56S21.06,17.34,36.68,9,71,10.24,77.79,29.06c0,0,5.79-8.47,13.41-5.47C98.44,26.45,97,35.27,97,35.27s13.11-2.43,20,5.7c6.5,7.68,2.81,17.74,2.81,17.74"/></g></g></g></svg>